<svg
  xmlns="http://www.w3.org/2000/svg"
  xmlns:xlink="http://www.w3.org/1999/xlink"
  width="128"
  height="64"
  viewBox="0 0 128 64"
>
  <title>Logo Wild Casino</title>
  <defs>
    <path
      id="1mp0cc3lpa"
      d="M0.021 0.017L33.899 0.017 33.899 24.062 0.021 24.062z"
    />
  </defs>
  <g fill="none" fill-rule="evenodd">
    <g>
      <g>
        <g>
          <g>
            <g
              transform="translate(-148 -420) translate(88 412) translate(60 8) translate(.056 9)"
            >
              <mask id="1loh5sgt1b" fill="#fff">
                <use xlink:href="#1mp0cc3lpa" />
              </mask>
              <path
                fill="#137945"
                d="M30.378 4.898l-.018-.022c-.006.007-.018.012-.018.02 0 .006.01.013.015.02l.02-.018zM17.664 8.896c-.005-.007-.01-.017-.016-.018-.005 0-.013.008-.02.013.006.006.01.017.017.017.005.001.012-.008.02-.012zm9.246 2.013l.003-.046-.077.013.002.026.072.007zm.126 1.06h-.02v.06l.015.001.005-.06zm1.017-3.482v-.021c-.022-.002-.046-.003-.07-.003l-.001.019.07.005zm-16.688 5.45c.052.01.088.028.102.017.021-.017.028-.054.04-.082l-.033-.025-.109.09zm2.576-.1l.008-.002v-.053h-.008v.056zM26.5 12.24l-.032-.029-.081.052.05.05.062-.073zm-.754 1.198l.038.025.055-.078-.04-.027-.053.08zm-6.795-1.625h.03v-.118h-.03v.118zm9.244-3.578l-.056-.043c-.015.03-.033.058-.045.09-.002.003.033.028.034.027.024-.023.045-.049.067-.074zm.328.28c.028-.067.044-.09.045-.112.001-.017-.017-.034-.057-.105l.012.217zm1.533-4.008l-.047.054c.03.019.059.038.09.054.002 0 .03-.036.027-.04-.02-.025-.047-.045-.07-.068zM18.199 2.911l-.034.004.018.137.03-.004-.014-.137zm10.125 3.87c-.09.124-.09.124 0 .17v-.17zM25.74 18.968l.04-.02-.067-.138-.043.021.07.137zm2.746-11.633c-.095-.1-.095-.1-.152.014l.152-.014zm.163-.32l-.048-.04-.097.12.026.023.119-.102zm1.2-2.125l.032.016.08-.126-.053-.03-.059.14zm-18.906 9.181l.033-.057-.133-.057-.023.046.123.068zM30.45 3.392l.016.061.149-.05-.014-.046-.151.035zM10.795 15.389l.06-.043-.109-.159-.044.026.093.176zM9.06 10.69l-.039.008.018.146.06-.01-.04-.144zm3.365 3.44l.013-.043c-.055-.025-.11-.053-.168-.072-.008-.002-.03.037-.069.085l.224.03zm14.778-6.272l.037.07c.063-.035.126-.069.187-.105.003-.002-.007-.027-.017-.057l-.207.092zm-15.638 8.878l.08.148.175-.148h-.255zm.455-1.856v-.217c-.021.069-.154.138 0 .217zm15.15-6.744l.285-.107-.246-.106-.038.213zm1.175.734l-.176-.15c-.044.172.024.202.176.15zm-1.462 2.41c-.05.042-.09.079-.132.111-.104.078.005.084.051.13.03-.077.176-.092.081-.241zm-.478 3.429l.04.035.245-.18-.148-.07-.137.215zm-14.392.814l-.035.313c.078-.11.121-.168.17-.236l-.135-.077zm16.93-9.42l.018.258c.097-.088.12-.172-.018-.259zM6.43 14.176l.104-.212-.246.032.142.18zm19.201 6.627c-.109.175-.116.186-.055.278.015.023.076.016.118.023l-.063-.301zM10.872 14.32l.037-.036-.242-.201c-.013.042-.028.086-.044.131l.25.106zm-4.261.232c-.016.17.02.28.24.218l-.24-.218zm5.28 2.756l-.368.08c.144.105.26.096.368-.08zM.823 2.244c.009.17-.042.3.152.311.094-.153-.019-.207-.152-.311zm7.37 6.321c-.039.095-.048.153.07.19.055.018.085.115.13.179l.01-.236-.21-.133zm19.272.032l-.001-.082c-.116-.023-.235-.073-.38.106l.38-.024zm.939-.422l-.237.255.137.2.1-.455zm-1.524 3.709c-.122-.095.014-.114.02-.17-.126-.02-.243-.024-.265.144-.003.026.01.053.022.104l.223-.078zM9.564 13.043l.232.168.128-.256-.36.088zm19.349-6.219c-.032-.122.056-.29-.127-.376-.076.173-.005.284.127.376zm-18.377 7.883c.096-.109.334-.081.325-.304-.084.015-.161.03-.224.04l-.101.264zm16.52-4.819c-.14.032-.14.032-.2.118l.141-.023-.132.258h.16l.03-.353zm.614 2.174c-.252.169-.26.188-.258.5l.258-.5zm-.883-1.818c-.177.321-.177.321-.032.423l.133-.326-.1-.097zM11.19 14.577c-.217.012-.23.03-.32.439.175-.129.27-.26.32-.44zm14.914.326c.159-.11.238-.247.212-.428l-.218.031c-.072.135.111.258.006.397zm2.96-7.77c.098-.137.226-.44.218-.537-.002-.03-.045-.058-.083-.102-.13.205-.16.411-.134.639zm2.36-2.131l.046-.447c-.117.02-.192.035-.268.049.132.117-.021.332.222.398zm-4.842 7.373l.04.06.297-.166c.018-.163-.128-.181-.208-.253-.01-.01-.037.002-.082.006l-.05.175.266-.035-.263.213zm2.754-5.922l.393-.963-.36.153.07.215c-.206.162-.114.385-.103.595zm-2.34 8.343l-.172-.046-.11.152-.12-.146-.142.224c-.096.064-.193.126-.303.2l.172.156.127-.36.29.067-.559.526-.048-.273-.112.054-.116-.143-.372.206-.19-.654-.582.768.323.67c.08-.157.08-.157.223-.164l-.125.493.19.071c.02.367.157.7.361 1.003.143.21.26.427.3.68.014.084.054.145.161.144.088-.312.168-.622.263-.928.148-.478.283-.965.588-1.374.153-.206.287-.41.256-.682-.006-.056.016-.12.04-.174.149-.348.302-.693.469-1.073l-.053-.096-.306.458-.069-.345c-.132.193-.205.393-.398.51-.01.006.004.055.007.084l.007-.008zm-13.499.005l-.196.037c-.188.294-.392.614-.6.93-.029.046-.08.077-.12.115l.006.005.239-.701c-.37.326-.61.712-.68 1.205l-.162-.11-.17.183.224.046-.143.357-.104.083.262.066.15-.2.092.235-.008-.007-.278.619c.094.046.028.161.06.223.043.085.122.145.078.263l-.229-.054-.11.145.143.74c.008-.003.03-.009.04-.023.489-.623.855-1.307 1.032-2.085.048-.211.08-.431.28-.572.035-.025.048-.083.08-.14l-.133-.055-.44.73c.15-.45.34-.88.502-1.319.085-.23.121-.48.18-.72.083-.062.167-.122.263-.191l.037-.308-.348.292.053.21zM30.45 5.107c-.058.037-.122.068-.172.115-.035.034-.051.088-.077.134l.005-.006c-.027.039-.083.083-.077.115.024.125-.14.186-.082.342.033.086-.09.23-.153.375l.179.087c.11-.276.202-.522.306-.763.068-.158.176-.283.38-.306.128.124.192.342.426.356.194-.228.18-.382-.07-.615l-.152.332-.145-.263-.15.012.15-.511-.192-.065-.017-.044-.021.028.044.01-.16.09c.034.049.066.096.11.163-.174.095-.138.262-.138.42l.006-.006zm-3.404 5.706l.064-.176H26.9l.156.167c-.05.103-.098.206-.144.304l.225.16c.28.004.323-.035.355-.369.056-.05.109-.091.152-.14.009-.01-.016-.05-.024-.075l-.267.059.021-.164.229-.085c-.204-.17-.204-.17-.148-.317-.077-.061-.119-.187-.268-.14-.049.17-.005.31.128.425l-.126.217c.045.17.045.17-.032.264l-.112-.13zm-.465 3.328l-.008-.006c-.032.103-.092.148-.204.105-.014-.005-.042.026-.075.048l.182.147.157-.195.163.07.026.252-.015.005c-.012.02-.003.003.007-.013l.18.09-.092-.258.076-.114c-.03-.056-.06-.108-.087-.162l-.075-.155c.25-.454.25-.454.225-.651-.062.097-.153.175-.143.237.017.103-.033.148-.087.2-.058.059-.126.106-.19.159l-.026-.032.075-.168c-.2.096-.263.228-.27.41l.181.031zm-.49-.67l-.006-.007-.03.19.275-.067.18-.429c.194-.355.189-.467-.047-.644v.282l-.19-.097.102-.235c-.058-.03-.11-.055-.161-.08l-.208.17c.072.095.146.171.194.26.05.092.101.177.193.23-.254-.026-.205.283-.416.324l.114.103zM14.46 15.155c.244-.32.384-.691.52-1.064-.138.21-.256.43-.36.656-.062.133-.102.277-.151.416l-.014.014.005-.022zM27.787 9.1l.012.021-.019-.015v-.083l-.392-.166v.23c.165.084.165.084.4.013zm-.542 3.768c-.128.13-.163.245-.086.324l.142-.121-.066-.212.054-.086-.04-.015c0 .036-.002.073-.004.11zm-.732-1.645l.01.01-.196-.066-.13-.12c-.065.052-.12.095-.215.167l.268.042.084-.097c-.011.124.046.197.169.231.05-.056.144-.102.01-.167zm1.21-1.696V9.3l-.155.203.164.014.167.382.029-.012-.018-.298-.187-.062zm-17.56 3.7l-.128-.215-.046.018.015.187h.167l-.108.186.077.072.172-.29-.034-.025-.116.067zm-.117-.609c-.01-.007-.018-.015-.024-.02l.032.013v.233l.143.063.026-.035-.177-.254zm19.743-7.557l-.19.103-.012.02.004-.028.228.082-.037-.184.01-.02-.003.027zM10.823 11.1c-.138.097-.058.138.088.214l-.095-.223.03-.003-.023.012zm-.84 2.485c.002.008.004.017.01.023.002.003.01 0 .017 0l-.033-.017-.135-.178c-.004.112.017.2.14.172zm-3.15 1.577l-.041-.021c.016.004.033.01.05.013-.01.078-.007.147.145.154l-.154-.146zm4.675 1.924c-.035.125.02.145.158.11l-.168-.101-.02-.202c-.021.07-.087.152.03.193zM1.327 2.076l.014.142.038-.013-.06-.122v-.2c-.032.067-.104.145.008.193zm7.862 19.33c-.005-.025-.012-.05-.006-.028-.013-.019 0 .001.015.02l.011.104.04-.012-.06-.083zM30.994 4.692l-.052.13-.053.062.021.01.023-.08.053-.13.027-.04c-.006.016-.012.032-.02.048zM15.42 13.212c.104.005.063-.068.063-.119l.019-.015-.009.024-.064.118-.052.133-.033.042.022-.052.054-.13zm10.915-6.218c-.02.02-.042.038-.062.057-.06.037-.07.077-.01.124l.007.009-.016-.01.011-.13.063-.057.02-.018-.013.025zm-.607-1.513l-.017.007.007-.016c.01-.013.018-.026.026-.04l-.016.049zM32.007.824l.06-.173.213.196.9.115.01.197.238.033c-.034.054-.05.116-.08.123-.07.016-.144.005-.229.005.133.199.187.187.408-.025l.345-.179c.009.07.042.174.02.188-.153.094-.108.238-.118.37-.017.245-.081.473-.221.68-.042.06-.057.141-.085.213l.005-.004c-.032.023-.093.05-.09.07.025.218-.085.41-.11.616-.012.093-.001.216-.056.271-.128.132-.144.291-.188.451-.056.202-.141.396-.232.585-.034.072-.119.12-.18.179l.009.008-.076-.153c-.1.14-.173.246-.245.35.104.331-.34.466-.276.812l.212-.069c.005.03.024.066.014.087-.098.199-.189.403-.305.59-.593.963-1.015 2.006-1.457 3.04-.564 1.32-1.144 2.633-1.716 3.949-.016.036-.025.075-.045.135l.131.08c-.14.458-.271.89-.404 1.32-.093.3-.21.587-.427.823-.053.057-.089.135-.115.21-.571 1.652-1.285 3.246-1.973 4.85-.443 1.034-.87 2.072-1.211 3.15-.352.12-.7.093-1.045.006-.27-.069-.53-.101-.803.076-.333-.632-.675-1.235-.974-1.86-.714-1.494-1.408-2.998-2.112-4.498-.137-.291-.289-.575-.421-.868-.087-.192-.26-.355-.205-.602.012-.054-.058-.124-.084-.19-.091-.232-.18-.465-.27-.698-.014-.037-.023-.08-.05-.107-.266-.268-.36-.622-.484-.96-.089-.242-.212-.454-.365-.563-.108-.281-.192-.504-.279-.725-.054-.139-.113-.277-.17-.415-.018-.046-.024-.113-.06-.136-.282-.186-.339-.513-.498-.79-.04.071-.077.13-.108.193-1.081 2.156-2.166 4.31-3.149 6.513-.094.21-.192.42-.278.635-.07.178-.151.333-.313.46-.108.084-.165.245-.224.381-.051.119-.072.25-.107.383.022.018.05.043.094.078-.087.173-.213.341-.254.528-.052.236-.275.359-.314.603-.037.234-.14.46-.224.685-.084.226-.174.45-.272.67-.233.52-.538.988-.993 1.345l.005.001c-.025-.115.043-.28-.182-.304-.117.122-.218.316-.47.231l-.116-.165c-.28-.012-.56.14-.844.06l.045-.414-.196.116c.072-.214.024-.389-.127-.534-.088-.085-.173-.175-.316-.124.02.044.04.086.088.184l-.3-.1.277-.39-.226-.064.003-.052.21-.04c-.012-.038-.021-.074-.035-.109-1.028-2.453-2.079-4.897-3.077-7.363-1.263-3.116-2.49-6.246-3.717-9.376C1.3 4.367.853 3.098.379 1.84c-.04-.108-.123-.2-.181-.303-.042-.072-.076-.15-.142-.285l.223.09c.003-.03.018-.066.006-.087C.208 1.114.125.979.021.805.152.741.26.675.378.635.702.52 1.034.456 1.38.445 2.2.422 3.01.501 3.82.61 4.52.704 5.224.716 5.922.56c.356-.08.599.038.735.385.099.25.165.515.238.775.078.282.156.56.364.785.058.063.091.155.117.24.554 1.807 1.283 3.547 2.033 5.279.427.985.842 1.976 1.276 2.996.13-.278.256-.535.371-.796.83-1.877 1.784-3.69 2.813-5.465.085-.148.23-.287.126-.493-.016-.031.028-.092.044-.14.349-1.07.842-2.063 1.572-2.93.058-.068.108-.145.17-.23.029-.116-.039-.279.128-.373l-.098-.22.209-.19.134.167.284-.19.269.374.105-.276 1.003-.24c.131.298.252.594.39.882.82 1.71 1.65 3.418 2.467 5.13.617 1.297 1.227 2.598 1.826 3.903.172.373.296.768.442 1.152.046.122.094.243.155.4.05-.078.093-.128.118-.186.226-.526.447-1.053.675-1.578.034-.078.091-.147.138-.22.123-.197.295-.375.263-.65l.197-.211c-.097-.193.038-.33.133-.477l-.131-.11.13-.094.363-1.238.054.004.108.457.104-.347-.137-.287.194.072c-.011.072-.017.14.1.144l-.106-.14c.005-.124-.035-.205-.18-.186l.01.012.13-.084c.046-.148.063-.293.133-.404.103-.163.178-.326.2-.517.037-.325.204-.601.338-.89.084-.18.167-.362.234-.549.032-.09.025-.193.036-.29l.02-.008-.014.01-.063-.007.007.006c.02-.258.224-.41.341-.62.066.024.121.042.187.065l.11-.44.15-.044.085-.274-.091-.075.127-.182-.006-.006.033.035.038-.036-.006.007c.18-.103.236-.29.305-.465.08-.205.153-.413.238-.616.082-.197.202-.368.393-.502l.176.162.156-.089.101.13.046-.116.902.053.329.24.241-.201.27.146c.097-.013.243-.007.316-.166.295.174.595.055.905.024l.128.108.132-.243.03.156.23.048.094.037.007-.036-.109.007z"
                mask="url(#1loh5sgt1b)"
              />
            </g>
            <path
              fill="#137945"
              d="M70.124 11.198l.015.01.002-.018-.017.008zm15.898 1.51l-.018-.022c-.007.007-.018.013-.019.02 0 .006.01.014.017.02l.02-.018zm-3.237 2.437l.019-.013c-.005-.006-.01-.016-.015-.016-.006-.001-.013.007-.019.012l.015.017zm-.639-5.155l-.017-.022c-.007.006-.02.011-.02.018 0 .007.01.014.016.021l.021-.017zm2.656-.603l-.016-.001-.008.07h.024v-.07zm-2.8.781l-.038-.006c.002.004.004.01.006.01l.033-.004zM68.202 16.94l-.013.001.01.071c.006-.007.018-.014.017-.02-.001-.018-.009-.035-.014-.052zm17.677-6.157l-.012.023.016.003-.004-.026zm-.431-2.316h.016v-.065h-.016v.065zM69.653 19.788l-.017.045c.01 0 .02 0 .031.002l-.014-.047zm2.793-1.806l-.001-.022-.072.004v.018h.073zm13.546-5.629h.02v-.075h-.02v.075zm-4.03 1.609l-.026.027.065.07.031-.032-.07-.065zM67.123 21.58l-.033-.006.015.096c.006-.004.017-.008.017-.013.002-.025 0-.05 0-.077zm2.692-11.502l.048-.002-.02-.104-.028.004v.102zm11.925.068l-.002.042h.095v-.036l-.093-.006zm3.853 1.05l-.03.001v.099l.035-.001-.005-.099zm-15.504.117l-.032.001.007.098.03-.001-.005-.098zm1.248-.987l.031-.005-.014-.103-.034.005.017.103zm-1.426-.002l-.026-.062c-.027.014-.056.027-.08.046-.004.004.01.032.016.05l.09-.034zm1.45 6.689l-.048.016.024.1.033-.006-.01-.11zM85.052 5.87l-.04-.016-.04.085.053.022c.01-.03.018-.06.027-.091zm-.556-.2c-.02.008-.043.015-.065.022.02.04.037.079.056.119l.035-.013-.026-.127zm-2.345 7.282l.04.019.073-.127-.05-.025-.063.133zm-11.652-2.186c-.045.117-.04.165.078.134l-.078-.134zm2.253-4.996l-.031.002.012.13.026-.002-.007-.13zm8.477 6.817l-.035.016.043.122.045-.02-.053-.118zm-13.226 1.539h.048l-.01-.16-.038.001v.159zm4.586-8.128h.049v-.13h-.05v.13zm-1.344 7.822l-.052-.025-.05.12.032.014.07-.109zm.008.682l-.041-.033-.07.107.03.02.081-.094zm9.949-4.14l.068-.007-.048-.132-.032.008.012.13zm-9.812 6.196c-.03-.028-.046-.056-.066-.06-.018-.002-.055.026-.055.04.001.021.022.054.042.06.017.005.043-.02.079-.04zm9.366-7.507l.067-.044-.09-.132-.044.024.067.152zm.36 1.743l-.042-.034-.084.143.044.026.082-.135zm-10.746.563l.135-.044-.05-.12c-.034.064-.05.094-.085.164zm1.14 6.338l.038-.01-.026-.14-.057.015.045.135zm.681 1.6l.056.026c.016-.035.033-.07.043-.105.002-.007-.025-.023-.039-.034l-.06.112zm-3.93-5.718c-.037.13-.057.204.093.169l-.094-.17zm15.178 1.246l-.057-.01-.035.158.07.01.022-.158zm-2.8-5.526l.045-.04-.123-.135-.04.036.118.14zm-1.931-7.686l.035-.064-.108-.058-.034.07.107.052zm-6.361 6.401l-.064.215c.089-.043.19-.081.064-.215zm-.055 1.816l.064.005-.02-.263-.044.003v.255zm9.093.494l-.007.083h.166l.009-.048-.168-.035zm-12.25 2.73l.047.027c.023-.03.054-.058.067-.092.009-.023-.01-.056-.026-.14l-.088.206zm13.06-.025l-.123.065.143.199-.02-.264zm-6.242-9.482l-.084.018.067.186.047-.012-.03-.192zm8.215 2.925c.069.023.11.05.14.042.03-.01.05-.056.075-.085l-.032-.04-.183.083zM70.472 18.163l.032.066.2-.113-.023-.047-.21.094zm8.117-.621l-.022-.063c-.042.014-.088.02-.123.043-.033.02-.054.059-.08.09l.03.029.195-.1zm-7.615-6.14l.15.19c.03-.094.051-.178-.15-.19zm13.579-4.03l-.088.224.157-.02-.07-.204zM74.089 19.12l.066.034.113-.214-.07-.036-.109.216zm-7.313-9.37l-.07.031.06.176.069-.023-.06-.184zm5.162 10.307c.041-.089.078-.146.093-.209.005-.025-.038-.061-.093-.145v.354zm-.618-9.607l.014.176.218-.047-.232-.13zm3.67 10.444l.06.019.081-.157-.188-.045.047.183zm-5.289-1.42l.106-.004-.058-.236-.07.013.022.227zm-1.007-6.744l.09.211.171-.149-.26-.062zm13.589 1.878c.083-.163.127-.255-.06-.319l.06.32zm-11.253-1.73c.033.06.063.109.086.16.02.04.034.084.05.127l.036-.009-.016-.298-.156.02zm.312-3.008c.16-.058.16-.058.11-.217-.103.042-.168.095-.11.217zm.108 7.992l.052-.057-.229-.185c-.045.18.062.214.177.242zm9.088-10.323c0 .029-.001.057-.003.086h.355c-.113-.182-.249-.014-.352-.086zm-.19.173l.099.233.152-.205-.25-.028zm-7.026 13.266c-.146-.123-.146-.123-.295-.028l.295.028zm-4.166-1.89c.104-.12.159-.23-.02-.34-.094.12-.074.228.02.34zm-1.236.267l.106-.33-.273.093.167.237zM80.662 8.726c-.062-.113-.091-.172-.125-.227-.033-.053-.07-.102-.12-.174-.02.306-.02.306.245.401zm-9.33 2.177c-.024-.105-.067-.174-.201-.147.056.15.144.237.288.301l.115-.283-.202.13zM84.27 6.917c-.162.092-.099.161-.06.23.048.08.075.19.256.137l-.196-.367zm1.766 7.433l-.06-.024c-.035.108-.076.214-.102.325-.018.073-.015.151-.025.282.198-.196.191-.39.187-.583zm-.286-3.454l-.085.325c.203.087.203.087.293-.082l-.208-.243zm-.732-.81l.086.208.064-.233-.2-.06-.051-.284c-.041.14-.237.257-.061.413l.162-.043zm-3.955.953c-.157.149-.101.268-.075.411.026.147.09.241.216.38l-.14-.79zm-12.91 2.93l-.035.007v.76l.146-.209.089.1v-.506l-.12.19c-.015-.083-.022-.132-.034-.18-.012-.054-.03-.107-.045-.161zm17.344-3.502l.232-.043-.245-.65-.174.192c.208.129.16.327.187.5zm-17.083 5.211c-.017-.264.048-.559-.082-.844-.075.041-.145.081-.217.122l.11.177-.12.029c.018.154.032.297.052.44.013.087.034.174.057.26.006.022.032.038.045.053l.155-.237zm5.048 5.921c-.12.233-.363.117-.528.185l-.142-.123-.05.252.253.187.434-.184.062-.197.101.28.318-.267-.448-.133zm4.377-17.772l-1.782-.268-.03.216.279.1-.015.216c.065-.019.101-.038.138-.04.187-.004.396-.057.554.01.12.051.165.095.297.019.086-.05.243.022.309-.162l.042.236.09-.007.038.217.133-.251-.053-.286zm-9.816 14.84c.008-.03.024-.058.024-.087.002-.675.003-1.35.002-2.025 0-.133-.087-.267.015-.4.006-.007-.074-.08-.11-.12.178-.367.038-.712-.056-1.081.161-.32.117-.648-.136-.897v.353l.084-.036.033.024-.114.15-.162-.171c-.132.46-.133 1.008-.017 1.452.02.075.047.162.03.233-.094.364-.021.72.018 1.054l.165.217c-.064.143-.168.263-.141.337.091.255.071.517.105.774.018.13.075.26.26.223zm4.371-9.879l.009.008-.093-.315c-.13.348-.076.651-.027.947.285.191.28.252-.039.632v.762l.128.087c-.14.094-.078.204-.073.307.006.168.034.344-.004.503-.04.169-.067.33-.055.503.01.14 0 .283 0 .424-.001.685 0 1.37-.002 2.055 0 .054-.02.108-.03.162l-.048.632.01.029-.038.03c.012.011.025.022.039.032.069.087-.02.124-.057.178l.018.057c.052.183.072.367.032.556l-.016-.016.022.01c-.053.09.105.207-.037.285.052.08-.041.208.089.26l-.008-.006c.008.355-.014.741.293.947l.12-.093.031.276c.16.09.159-.062.216-.135l.122.163h.238l.015.157h.599c.064-.13.147-.274.355-.195-.018.025-.038.048-.052.073-.013.024-.019.05-.033.09.25.015.486.044.684-.115.248.245.474-.004.705-.01l.132.111c.165-.162.332-.234.549-.115.067.036.186.033.256-.002.106-.054.198-.057.307.014l-.012-.19.12.073.103-.084v.206l.18-.187-.189-.011c.053-.04.13-.125.154-.112.163.089.248-.071.35-.093l.152.171c.075-.248.338-.29.41-.485l-.088-.11.036-.033.243.173.166-.086.022-.217.114.169.339-.226-.27-.115c.021-.087.025-.178.165-.152.076.014.161-.018.242-.03l-.004-.04-.28-.065c.127-.1.211-.157.283-.226.632-.618 1.15-1.318 1.51-2.128.392-.879.493-1.793.331-2.741-.04-.237-.063-.473-.033-.723.033-.286.057-.6-.19-.842-.032-.032-.004-.125-.004-.19l-.034.02-.408-.752c.071-.175.067-.188-.1-.29l.11.298c-.169-.207-.356-.403-.502-.625-.411-.623-.975-1.072-1.624-1.408-.58-.3-1.208-.486-1.842-.644-1.015-.253-2.047-.412-3.085-.534-.086-.01-.173-.001-.273-.001-.04.53-.22 1.016-.146 1.479l-.267.554c-.1-.1.124-.242-.057-.356l-.046.369.152.107c-.012.219-.017.408-.032.597-.006.065-.035.128-.053.192zm-1.434 10.436l-.109-.031c-.102.285-.055.467.16.559v-.478l.131.031v.363l.09-.194c.018.053.035.098.047.13h.208l.09-.216-.19.018-.063-.17c.132.07.213.11.293.154.041.022.08.048.12.072l.021.012-.027-.004c.007-.082-.125-.185.035-.236l.18.2.05-.03-.08-.282-.169.037.063-.419-.255.194c-.033-.063-.016-.093-.013-.125.003-.03-.008-.062-.018-.121l-.208.168.04-.202-.226-.038.191.236-.031.096h-.195l-.192-.238-.168.295c.163.09.34-.038.478.096l-.253.123zm-.363-2.372l-.041-.007.049-.004v.998l.224.168.174-.213.05.033c-.015.031-.033.061-.044.094-.01.03-.013.065-.03.148l.268-.128c-.117-.218-.23-.413-.33-.616-.105-.21-.146-.448-.13-.633-.168-.07-.092.149-.19.16zm12.236-1.943l-.082-.038.094-.278.19-.077-.02-.257.201.12c.142-.266.282-.525.174-.87l-.235.17-.123-.239-.074.56c-.053-.041-.159-.09-.154-.124.022-.147-.1-.199-.157-.292l-.014-.008.02.006c.014.097.004.207.046.29.092.181.061.357.044.536-.236.016-.04-.32-.298-.287l.079.414.15.038-.038.222c-.15.055-.14-.121-.244-.195l-.106.142.12.182-.176.012v.234l.174-.197-.045.2h.208l.192-.312.06.062.151.396-.202.078-.267-.112.042.32.233-.218.088.185c-.144.092-.354.05-.475.221l.256.116.129.22.108-.191-.102-.078.023-.05.378.068.05-.163-.187.04-.033-.198.212-.056-.075-.315.174-.056-.005-.024h-.29l-.194-.197zm3.318-3.318l-.04-.02.045.014-.005.122.008-.007-.212-.208.261-.047v-.165l.127.108-.045-.619-.181.038.156-.18-.112-.4-.059.005-.095.393.218.662-.275.056c-.01.041-.049.103-.036.15.042.152.102.298.155.448l-.084.108c.15.053.254.043.243.006-.046-.17.136-.243.16-.379l-.23-.085zm-5.153-2.054h-.105l-.02.06.244.132-.127.103.129.236c.038-.088.05-.138.08-.174.023-.03.069-.041.105-.06l-.298-.69-.13.048c.047.125.014.26.114.353l.008-.008zm-11.084 1.19l.009.008.153-.217-.267-.049-.078.51h-.247c.131.225.291.164.448.115l.003.023c.025.034.007.01-.012-.015-.015-.051-.03-.102-.05-.164l.197.013-.156-.224zm10.79-2.89l-.018-.02.024.013c.026.121.044.245.083.36.01.03.09.035.156.057-.03-.104-.052-.176-.07-.242l.202-.168h-.378zm1.032 1.939h-.065l-.174-.203.069.27.212.138c.095-.103.271-.14.276-.306l-.318.1zm-10.48 2.36c-.004-.134-.018-.26-.235-.244l.242.238c-.012.062-.023.124-.037.186-.012.057-.028.113-.049.195l.153.124c.019-.135.036-.238.047-.34.01-.089-.005-.164-.121-.158zM83.12 13.28l.16.199.22-.152v.026c.013.032.003.007-.006-.018l-.11-.2-.258.151-.045.017.025.023.014-.046zm-1.818-2.665l.007.005-.098-.125c-.008.292-.008.292.203.285.012-.083.125-.17-.005-.246l-.107.08zm3.765-1.198c.107.01.114.08.11.168-.007.112-.002.223-.002.383.15-.327.15-.327-.018-.616l-.083.076-.126-.142-.054.208.173-.077zm.6.112c.036.048.074.095.12.153.065-.093.192-.117.102-.258l-.11.15c-.052-.015-.087-.026-.122-.035v-.185l-.276.056.028.202.257-.083zm-3.508 2.358l-.019.146c.101-.075.125-.118.01-.138.13-.232.12-.269-.089-.355-.038.201-.038.201.098.347zm-10.914 4.13c.033-.078.063-.157-.026-.255-.025.103-.045.18.034.25l-.041.301.216.082-.183-.377zm-.719-3.82l.028.038.01-.03h-.045v-.361l-.174.185.181.167zm15.024.972l-.178-.158c.004.19.004.19.168.237v-.089c.127-.043.127-.043.027-.131l-.017.141zm-5.275-5.937l-.056-.067c-.072-.104-.145-.206-.297-.239.091.23.091.23.306.232l.052.069.157.105.036-.046-.088-.17-.11.116zm-3.931 12.584l-.006.006c-.055-.116-.055-.116-.223-.006h.229zm5.016-8.768l.024.01-.03-.002.011-.203-.193.02.188.175zm-7.808 10.414v-.133c-.033.047-.125.113.008.126l.172.11v-.173l-.18.07zm7.758-9.324l-.196.022c.078.047.115.071.175.109l.014-.138.026-.037-.02.044zm3.265-4.97l.019.017s-.013-.004-.025-.01c.021-.097.032-.189-.112-.19l-.042-.019.038.023c-.02.101.043.146.122.18zm-1.634 8.9l.062-.077-.045-.016-.009.1-.015.005.007-.013zm-1.803-3.196l-.09.014c.015.02.029.038.043.06.013-.014.023-.02.026-.027.006-.018.008-.036.012-.054l.01-.011c.002-.014 0 .002-.001.018zm-9.937-2.442l.016.023-.024-.016c-.032-.084-.032-.084-.112-.007h.12zm-.488 9.516l.047-.072-.039-.014v.095l-.084.037-.06-.347h.15l-.084-.654-.2-.135.149-.306-.737-.057.193.204-.279.021.128-.46c-.059-.058-.214-.033-.249-.176l.333-.046-.042-.258c.178.129.152.287.113.464l.206-.115.1.195c-.021.012-.042.025-.016.01l.008-.02.06-.2-.169-.118.066-.143.106.14c-.1-.42.037-.856-.139-1.238l.066-.16-.146-.35-.107.047c.027-.093.028-.15.056-.185.106-.134.093-.284.071-.433-.071-.485-.02-.982-.163-1.458-.008-.028 0-.06 0-.088.262-.195.024-.435.065-.648l-.146-.048.059-.357.032.004.048.315.064-.01c-.024-.194.077-.41-.16-.584l.216-.245c.012.082-.031.184.079.234l.24-.17-.14-.354-.19.302-.012-.153-.19.024c.056-.098.097-.207.12-.204.172.025.07-.133.13-.177-.15-.14-.077-.31-.04-.485-.265.062-.207.25-.186.432l-.227-.264c.038-.075.075-.144.12-.23l-.223-.247c-.06.406-.033.768-.205 1.14l-.103-.226-.153.038.025.178.115-.122c-.153.903-.06 1.77-.05 2.637-.137-.33-.036-.684-.12-1.086-.031.378-.05.689-.086.997-.017.143.034.247.124.344h.001l-.11.044c-.043.18.202.283.077.47l-.262-.068-.05-.251.152.098c.045-.278-.055-.48-.242-.646.116-.076.141-.2.148-.35l.084.108v-.598l-.088.228-.204-.837c-.055.147-.048.287-.057.425-.008.14-.04.277-.047.417-.01.148-.003.298-.003.464.05.04.114.087.176.135l-.189.172c.025.253-.102.516.07.728l-.108.28-.266.125.071.2.113-.061.012.012-.108.192-.058.06.173.108c-.129.151.103.442-.17.57.2.252.21.331.091.61-.009.021-.01.046-.018.087l.195-.11.132.353.009-.007-.254-.135-.14.07c.069.059.123.107.208.182l-.117.28.134.222.116-.15c.08.054.158.104.235.155h-.132l-.043.06.23.144-.064-.213.12-.015.014-.25.069.174.126-.084c.015.19.033.349.035.507.001.05-.039.102-.06.153l-.102.025.079.175.035-.012-.02-.195.087.26.21.049.023-.454c.094-.004.186-.02.168-.146l-.008.008c.04-.008.085-.03.121-.02.057.016.107.053.186.094l-.042.41.16.296-.3-.06.066.24.16-.118.2.045c.003-.187-.153-.36.057-.508l.035.244.047-.003v-.355l.066-.002c.086.312-.006.644.08 1.013l.1-.184.047-.075zm-1.268-8.179l-.024-.014.032.006v.114l.045-.012-.053-.094zm16.164.125l-.012-.011.018.009.008.087.035-.015-.049-.07zm-3.697-2.427l.03.044.034-.04.227.076.106.423c.212-.09-.037-.225.104-.332l.076.387h-.11l-.159.42c-.035-.009-.07-.016-.124-.028l.06.245c-.061.024-.11.044-.139.054-.174-.123.079-.336-.152-.429l-.322.144.137.119.15-.196.049.445-.146.028.25.521.243-.274-.104-.198.152-.3-.065-.142c.207.017.187.166.186.306l-.084.04c.032.326.06.62.09.913l.108-.015.02.046-.178.142.115.17-.166.134-.216-.102-.059.181-.081-.245-.11.512.15.143.342-.056.048.552-.102.04c.118.175-.085.297-.052.462.03.156.046.316.068.475l.06-.002.06-.185-.007.007.17-.073-.202-.075c.032-.074.06-.146.094-.215.043-.088.07-.207.141-.255.191-.126.207-.32.272-.527-.161.108-.11.338-.299.408v-.426c.291-.143.24-.453.324-.709.034.086.052.17.058.255.007.086.002.173.002.26l.054.007.3-.925c.149.503.156 1.03.377 1.522l.226-.632.195.239c-.052.199-.004.373.097.455l.195.623.084.852.153-.05-.01-.01c.003.112-.014.211-.15.244l.059.232h.236c.072-.074.01-.227.16-.234l-.007-.009.088.173.1-.278-.007.007c.146-.044.103-.169.118-.27.02-.131-.02-.29.165-.362l.135.122c.039-.05.108-.1.113-.154.009-.1-.02-.205-.034-.322l-.209.119c-.01-.075.012-.147.035-.147.152.001.303.017.467.03v-.245l.368.123c-.013-.238-.052-.452.131-.613l-.177-.107-.095.51-.223-.025.081-.302-.185.097c-.043-.004-.103-.027-.125-.008-.063.058-.11.132-.164.2-.019-.021-.033-.049-.042-.047-.19.031-.378.066-.58.103-.127-.206-.197-.418-.043-.658.1.175-.08.426.2.542l.062-.24.133.094.013-.185-.28-.049v-.047l.172-.078c.004-.054-.106-.133.035-.155l.019.024-.026-.017c.024-.216.073-.33.148-.292v.237l.13.146.119-.105.041.133-.016.009.011-.012c.02.002.039.002.058.002.011.026.027.076.033.075.082-.016.162-.04.283-.073l-.158-.12-.167.128.03-.205h.578c.008-.06.058-.177.024-.211-.1-.102.02-.159.018-.275-.078.024-.165.026-.2.07-.024.03.028.119.045.181l.008-.008c-.174.055-.308-.013-.418-.132l-.292.125.126-.358-.13-.17-.123.163-.107-.06.24-.26.368-.09-.083-.179-.236.095-.043-.47.16-.227-.098-.104-.134.161-.05-.18-.042.003v.515l-.04-.001-.141-.395.029-.037-.023.043-.22.219.2.083c.041.082.1.174.132.275.014.042-.026.101-.042.153l-.076.046-.088-.218c-.066.079-.094.14-.076.162.082.096.008.185.003.276 0 .008-.033.013-.045.018-.139-.044-.041-.144-.053-.218l-.159-.116.142-.05-.138-.638-.01.01c.033-.063.064-.127.096-.19l.092.063c.02.013.041.026.012.008l-.018-.001-.046-.372.232.062.183.196v-.27l-.19.083c-.055-.12-.115-.235-.299-.204-.01-.141-.022-.28-.035-.448l-.14-.144-.008.007c.013-.05.045-.104.038-.151-.024-.143-.063-.283-.1-.442h.217l-.046.148h.544l-.106-.349.008.008-.021-.316.146.24c.002.073-.06.18.116.184l-.125-.177.097-.092.21.422.067-.033c-.039-.097-.072-.198-.119-.292-.045-.09-.104-.173-.154-.255l-.263-.13c-.007-.168 0-.302-.02-.431-.039-.233-.046-.232-.233-.32l.055.282-.109-.07c-.024-.133-.122-.186-.228-.238-.146.175.08.168.097.256l-.064.059-.167-.02-.204-.292.102-.151-.274-.27-.008.006c.018-.04.057-.086.048-.119-.024-.085-.068-.164-.104-.246l.21-.017c-.067-.18-.107-.354-.262-.47l.06.495-.127-.13-.005-.016.01.015-.098.13-.182-.354-.284-.013-.196.155-.229-.214c.077-.13.154-.136.253-.1.09.032.187.049.277.072.048-.133.113-.245-.078-.341.01.077.014.12.02.178-.094-.013-.204.054-.262-.08l.139-.19-.614-.591.162-.145-.207-.027c.11.198-.042.367.024.547l-.015.013c-.07-.03-.192-.05-.2-.092-.045-.226-.236-.261-.395-.343l.007.007c-.098-.218-.271-.13-.438-.105-.085-.166-.169-.34-.392-.356l-.078.17c-.162-.09-.305-.172-.442-.25l-.203-.372c-.143.023-.272.084-.322.044-.203-.16-.434-.115-.654-.12l-.02-.157-.233.096c-.176-.244-.476-.145-.704-.265-.1-.053-.252-.009-.43-.009l.154.353-.007-.008c.03.114.062.227.093.34.067-.053.091-.101.098-.153.009-.059.002-.12.002-.181h.055l.022.41.165-.104-.005-.005.42.376.194-.152-.038.166.18.149.134-.188.085.205c-.274.206-.35.208-.723.208.165.03.243.242.455.202l-.1-.127.41-.116-.015.289c.239.007.085-.22.21-.297l.122.365-.118.138-.206-.067-.015.038.247.16.03-.08c.088.003.176.008.274.013l-.047.16-.162-.076c.035.216.2.254.325.306l.103.217.182-.194-.008.008.188.14-.193.082.243.276.038-.07.323-.084.064.167h-.587l-.013.028.403.163c-.01.06.175.112.023.2l-.007-.014.013.013.11.182c.013.009.026.016.04.024l-.047-.016.092-.086.094.156-.093.118.16.597-.168-.198-.06.257-.092-.24c-.184.124-.108.299-.16.417l.23.212.132-.039c-.134.174-.107.33.05.472l-.053.194.112-.026.321.288c-.006-.16.005-.282.142-.348.1-.048.18-.005.24.075l-.14.152-.082-.003-.003-.031.012.02zM72.53 19.29l-.038.013.033-.02.071-.063.175-.002.117.208h-.68l-.055.29.008-.009c-.133.128-.02.204.047.29l.145-.029.125.365.107-.23.22.04-.24.252.256.041.033-.158.164.031.143-.159.292.095c.15-.217.343-.023.547-.104-.038.209-.022.404-.11.523-.108.146 0 .328-.13.412l.35.72c.003.006.017.006.034.012l.145-.153c.111-.04.171.156.272.031l-.197-.265-.112.08c-.15-.104-.192-.234-.114-.377l-.195-.105.44-.132.106-.172.008.133h.155l-.017-.125.139.037-.018-.195-.114.166-.154-.157c.305-.09.606.074.861-.113l.04.133.226-.202-.185-.132.085-.278.2.124c.038-.053.073-.102.11-.157l.184.085.105-.134-.232-.018.073-.176-.56-.057-.047.176-.134-.206-.204.11c-.125-.04-.234-.115-.308-.09-.213.072-.403-.009-.596-.047l-.092.124c-.168.017-.258-.214-.457-.08l.25.152-.044.31-.31-.183-.049.071-.08-.05.04-.25-.258-.205c.27-.067.492-.127.716-.174.119-.024.208-.059.2-.223l-.242.035.116-.253-.16-.056c-.183.194-.352.371-.622.329l.014-.262-.302.169-.014-.028.022.02.04.132-.104.05-.077-.266-.161.183.071.088-.073.065zm5.807-14.355c-.006-.013-.012-.025-.01-.018-.005-.005.006.003.016.012l.018.045.022-.03-.046-.01zm.49.114l-.024-.042-.012.03.043.004.033.043-.04-.035zm-12.292 4l-.12-.182c0-.286-.017-.57.005-.85.016-.19.018-.405.232-.515.013-.006.016-.036.02-.055.054-.247.051-.494.001-.787l.124-.155-.03-.431-.108.352c-.122-.825-.122-1.639.035-2.475-.17-.231-.132-.533-.127-.814.012-.685.06-1.37.098-2.054.005-.079.03-.157.04-.21 1.02-.291 2.04-.241 3.062-.149.319.03.643.005.97.005l.056.124c.023.005.044.016.06.011.935-.243 1.872-.233 2.81-.028.089.02.18.033.269.037.574.023 1.15.03 1.723.066.985.062 1.96.205 2.919.444.879.218 1.732.508 2.55.901l.065.235.068-.13c.136.031.264.059.39.092.047.013.093.038.134.065.304.195.608.39.909.59.142.095.277.198.415.297l.017.364.033.005.062-.187c.313.292.666.539.822.98.165.01.273.12.284.277.01.17.217.214.204.402-.01.14.058.286.139.431l.04-.286c.182.104.144.406.351.39l.767 1.408c.02.035.042.07.07.098.306.283.392.652.457 1.046.123.733.28 1.46.425 2.189.132.654.18 1.316.179 1.982-.002.796-.015 1.592-.135 2.383-.086.565-.279 1.086-.622 1.55-.068.09-.14.13-.256.094-.357.825-.715 1.643-1.158 2.339-.159.087-.272.125-.355.198-.266.232-.513.485-.782.713-.299.254-.614.488-.92.732-.06.05-.13.097-.17.162-.443.716-1.107 1.154-1.862 1.474-.624.265-1.272.435-1.977.438.006.056.012.1.019.15-.122.071-.235.174-.407.102-.038-.017-.113.055-.177.09-.048-.028-.099-.058-.15-.09-.394.304-.856.439-1.334.525-.476.085-.955.15-1.44.064-.059-.01-.125-.02-.18-.003-.415.132-.841.03-1.261.062-.09.007-.162-.017-.162-.145.194-.059.387-.124.604-.028.026-.194-.114-.203-.214-.258l-.291.135-.126-.145c.156-.118.399-.009.47-.233l.232.148c-.13-.302-.157-.312-.365-.174l-.031-.36-.393.269-.11-.285-.247-.073c-.058.103-.11.197-.205.363l-.29-.394c-.098.269-.072.317.202.44l.05.24.289-.035c-.07.076-.113.12-.17.18l.154.237-.153.11-.044-.214-.146.221c-.335 0-.687-.005-1.04.001-.695.014-1.39.034-2.087.053-.151.004-.294 0-.438-.072-.168-.085-.349-.103-.518.113l-.075-.113c-.208.092-.445.063-.652-.025-.1-.043-.168-.043-.263-.035-.154.013-.309-.01-.463-.028-.136-.015-.282.053-.457.093-.105-.066-.159-.211-.188-.357-.07-.354-.16-.71-.178-1.068-.048-.926-.076-1.854-.084-2.78-.008-1.03.007-2.059.028-3.088.008-.43-.022-.865.092-1.289.01-.035-.01-.078-.014-.118-.029-.266-.1-.527-.033-.802.034-.138-.03-.3.004-.439.038-.156-.035-.283-.044-.433l.143.062c.002-.148.07-.279-.052-.415-.046-.052-.05-.166.076-.2.038-.01.066-.058.115-.104-.219-.29-.264-.627-.259-.99l.2-.297v-.91l-.22.162v-.619l.05-.056.098.245.072-.042c0-.22.012-.44-.006-.659-.007-.09-.078-.175-.12-.262l.006.007zM50.84 22.34l-.016-.018c-.006.006-.016.01-.016.017 0 .006.009.012.014.018l.018-.016zm-.498-6.049l-.006-.03c-.026.005-.052.01-.077.013l.007.035.076-.018zm2.895.596l-.048-.02-.002.04.05-.02zm-3.256-8.854l.002-.025-.024.006.006.024.016-.005zm-1.382 6.92l-.04.003.016.103.024-.003v-.102zm3.543-1.437c-.012.13-.05.223.106.171l-.106-.171zm-3.339-10.2l.042.042.11-.087-.026-.036c-.042.027-.083.054-.126.08zm3.838 11.437v.022h.163v-.022h-.163zm-1.605 1.94l.053-.006-.01-.157h-.034l-.01.162zm6.2 4.351l.006.055.241-.016-.005-.06-.242.021zm-6.12-10.469c.075-.11.075-.11-.027-.232l.027.232zm1.067 3.764l-.072-.023c-.015.06-.03.122-.043.183l.05.014.065-.174zm1.327 7.237l-.224.024.078.16.146-.184zm3.402-1.147l.216-.2c-.144.012-.255-.025-.216.2zm-1.66.049l.001-.077-.215.013v.05l.213.014zm-3.494-6.201l.247-.094-.098-.16-.149.254zm.546 1.595c-.126-.03.026-.265-.185-.285l.086.285h.1zm2.113 5.585c-.105.114.002.182.047.263.079-.102.106-.194-.047-.263zm.224.19c.097-.114.26.023.297-.17h-.333l.036.17zm-2.119-.105c-.09.124-.01.18.054.245l.136-.056-.063-.119-.084.067-.043-.137zM48.567 9.906h.03V9.29h-.03v.615zm8.695 10.206l-.147.412.28-.222-.133-.19zm-6.996-4.741l.075.022c.159-.208.012-.455.087-.674l-.06-.008-.102.66zm-.387 7.339l-.094-.286c-.096.248-.103.39-.041.667.076-.185.076-.185.03-.397l.105.016zm-1.323-12.146l-.063-.002c.001.286-.042.576.132.847l-.07-.845zm7.77 9.81l-.078-.085-.064.25.577-.218-.162-.146-.272.198zm-6.013.936l.23.195-.053.412c.342.165.632.037.922-.112l.177.2.425-.338.26.253.125-.11-.122-.256-.857-.174.103-.218c-.103.018-.166.036-.23.038-.062.002-.125-.013-.188-.021l-.013-.065.42-.186c-.101-.032-.174-.065-.25-.076-.297-.045-.598-.074-.894-.126-.248-.045-.478-.132-.584-.396.222-.11.548-.022.643-.39l-.68-.075c-.091.486-.178.958-.268 1.43-.056.294-.112.587-.055.94.052-.09.091-.136.105-.188.043-.154.074-.311.114-.466.041-.16.07-.329.232-.426l.215.24.223-.085zm2.78-3.369l.023.157.038-.003v-.154l.215.095-.05-.385c-.075-.041-.143-.08-.237-.13.08-.079.034-.257.23-.201.002 0 .009-.017.033-.066-.178-.217-.42-.462-.154-.78l-.376-.264.095-.298.035.01.007.146.135-.024c-.05-.263-.088-.505-.149-.742-.028-.113-.094-.222-.245-.25l-.124.18.292.485c-.153.039-.087.307-.341.38l.168-.32-.23.021.023.188-.164.045.021.134-.252.049-.04.241-.08-.097c-.016.01-.03.022-.046.033l.169.236c-.15.161-.13.326.036.486-.168-.067-.263-.17-.264-.344-.001-.034-.027-.068-.04-.102l-.066.044.038.258-.173.087.078-.226-.307-.166.009.008.222-.204-.381-.034-.03.547c.013.08.193.08.091.206l-.197-.07c-.014.168-.012.326-.195.389-.21-.111-.06-.332-.142-.474-.118.094-.198-.003-.286-.04v-.49l-.25-.136-.094.16c.15.292.19.57.004.791l-.377.053c0 .303-.008.604.004.905.006.134.028.283.215.314l.05-.218.176.238.598-.341c.268.081.495-.043.72-.043.235 0 .461-.016.684-.052l-.02-.176-.01.01.246.074.072-.062.418.042-.001.044.031-.01-.038-.028c-.024-.166.102-.112.183-.126zm-1.802-3.374l-.113.117.362.191c.194-.25.012-.586.179-.828l-.1-.418.2-.074c0-.048.004-.097 0-.145-.019-.22-.092-.451-.046-.656.056-.246-.034-.442-.084-.658.083-.191.083-.191-.032-.294v1.259c-.018.034-.056.074-.063.12-.047.327-.093.654-.128.983-.01.098-.052.143-.14.161.004-.35.013-.699.012-1.049-.001-.247.033-.494-.06-.74-.034-.093.014-.23.057-.335.072-.18.083-.176-.044-.354l-.03.175.008-.007c-.014-.122-.036-.243-.041-.365-.01-.226-.006-.453-.017-.679-.001-.033-.051-.063-.078-.095.083-.083.074-.155-.051-.211l.06.205c.057.199-.052.33-.184.45l.192.202-.18.01-.014-.022.021.015.113.21-.16.313.187.16c-.145.115-.145.237-.115.389.027.13-.009.273-.016.41-.001.02.004.039.004.045.056.07.106.13.149.182l-.101.453c.06.05.11.092.17.14-.1.196-.07.364.126.488l.113.259c-.058.02-.087.04-.112.036-.02-.002-.036-.033-.054-.05l.007-.014c-.007-.04-.002-.01.003.021zm-.617 7.735l.021.034c0-.007.003-.018 0-.02-.008-.005-.018-.006-.027-.008-.045-.065-.015-.188-.183-.195l.054.329-.138.128h.191l-.066.135-.135-.038c.062.175-.019.363.13.477l.58-.214-.155-.104-.32.19-.012-.245.154-.095c-.078-.122-.176-.226-.094-.374zm2.898-.677c.237.11.478.068.721.033v-.205c-.13.057-.227.13-.372.072-.116-.046-.258-.009-.35.108l-.01.008.011-.016zm-3.684-4.402l.227-.032-.151-.093-.068.134-.02.002.012-.011zm7.993 3.617l.004.018-.008-.01-.055-.12c-.02.026-.038.052-.056.079l.115.033zm-8.91-7.621l.084-.08-.048-.029-.03.115-.043.022.027.02.01-.048zm2.063 9.212l-.1.022.023.04.07-.068.018-.009-.011.015zm-2.844-.434l-.13-1.382c-.053-.531-.115-1.061-.154-1.593-.04-.533-.074-1.067-.08-1.6-.03-2.613-.05-5.226-.078-7.838-.005-.523-.026-1.046-.096-1.57v.838c-.179-.918-.234-7.161-.086-7.647l.13.588.262.162.117-1.191c.185.017.341.042.497.046.293.005.586.01.878-.005.486-.025.966.007 1.441.11.049.01.1.008.161.012l.13-.157.253.189.125-.181.192.15.326-.158c.14.059.306.197.479.033l.113.087.588-.139c.156.317.22.65.256.987.081.756.011 1.51-.043 2.263-.02.281-.011.565-.014.847-.002.153 0 .307 0 .476l-.146.088.169.167c.071.236-.21.359-.185.586l.167.126-.185.28c.205.67.114 1.356.1 2.038-.01.484-.032.967-.02 1.45.02.716.06 1.43.103 2.144.047.805.112 1.609.16 2.414.033.573.056 1.148.075 1.722.02.564.03 1.128.044 1.682.254.153.285.15.476-.03.022.02.045.037.064.058.02.022.035.048.075.104l.436-.214.068.141-.106-.047-.001.068.098-.032.135-.11c.06.048.127.099.193.15l.06-.083.22.181.035-.206.214-.068-.024.185c.024.012.049.032.058.027.198-.117.402-.148.619-.056.035.015.083.034.113.021.22-.089.437-.026.656-.004.265.025.522-.005.775-.115.231.092.451.366.721.06l.09.127c.222-.059.444-.064.685-.024l.07-.119.111.09.137-.215.254.15c.176-.107.382-.097.571-.104.361-.012.724.024 1.085.034.463.013.926.021 1.389.03.09.002.18 0 .293 0 .01.235.211.478-.07.67.03.18.067.347.082.516.007.085-.006.182-.043.258-.092.188-.031.385-.052.577-.005.047.052.102.085.16l-.193.228c.274.882.196 1.84.504 2.75-.2.14-.447.16-.674.2-.954.169-1.92.22-2.889.185-.644-.023-1.288-.04-1.933-.048-.597-.008-1.182.09-1.755.253-.172.05-.324.06-.497.003-.66-.217-1.347-.225-2.03-.243-.463-.012-.927.018-1.39.033-.776.025-1.551.062-2.327.077-.604.012-1.208.001-1.812-.005-.128-.001-.256-.027-.389-.042l-.221-.878.147.091c.125-.274.084-.61.347-.816-.057.17-.12.339-.166.512-.021.083-.027.182-.002.263.018.057.097.096.144.138l.038.3c.123-.413.16-.815-.023-1.205zM37.324 1.395l.011-.017-.019-.003.008.02zm5.64 20.925h-.026v.072h.019l.006-.072zm-3.154-.291l-.03.003.008.078.034-.004-.012-.077zm-.475.618l-.041.002.016.102.025-.003v-.101zM38.255 9.39l-.051-.009.012.116.03-.001.009-.106zm-.492-7.004l-.026-.063c-.027.015-.056.027-.079.046-.005.005.01.033.015.05l.09-.033zm.706 7.103c-.01.011-.02.023-.028.035l.081.062c.01-.01.018-.022.027-.033l-.08-.064zm-.042-3.733c-.035-.1-.035-.1-.137-.058l.137.058zm.844 12.569l-.045.042.09.109.037-.03-.082-.121zm.127-.339l-.048-.022-.061.126.048.024.06-.128zM38.33 6.02l-.05.04.127.12.037-.038-.114-.122zm3.693 12.586c.04-.094.087-.188-.072-.263l.072.263zm-4.73-17.051c-.029.19.058.175.148.146.01-.003.012-.031.023-.064l-.172-.082zm.723 2.868l.03.317c.104-.137.127-.207-.03-.317zm2.725 18.06l.25-.01-.146-.189-.104.2zM38.036 2.8l-.207-.246.026.295.181-.05zm2.062 18.342c.071-.282.06-.356-.067-.544l.067.544zm-1.66 1.611c.1-.148-.006-.242-.015-.373l-.137.116.151.257zm-.27-17.95l-.06-.04-.168.092.054.248.06.004.113-.304zm1.819 16.902c.185-.096.185-.096.06-.53l-.06.53zM38.283 5.127c-.125.037-.203.06-.297.09.005.185-.125.374.055.546l.287-.302-.103-.086.058-.248zm-.52 5.339l.304-.147-.299-.431.13-.145-.298-.085c.298.383-.111.537-.212.859l.18-.163c.096.102-.105.25.078.322l.19-.154-.072-.056zM40.8 18.01l-.012-.016.019.01c-.012.08-.022.159-.04.237-.004.02-.036.036-.055.054l-.116-.258-.218.15-.02.04.012-.047c.023.036.071.076.066.107-.029.164-.062.328-.11.488-.06.194-.128.384.02.562-.061.044-.129.16-.132.206l.151-.017c-.165.455-.039.865.098 1.266-.214.1-.255.295-.174.763l.07-.22c.027.242.154.423.028.628-.018.03.044.109.07.165l.296-.114.145.205.334-.017c-.031.07-.05.115-.072.158-.006.012-.026.016-.034.02l-.077-.031c.083.218.111.227.32.116l.34.282.357-.249c-.084-.18-.008-.333.07-.489l.182.051.012.046.027-.024-.045-.016c.032-.2.149-.332.33-.426.088.173-.137.14-.147.24l-.052.044.02.02.036-.059.124.044.206-.16-.329-.853-.106-.058c.097-.177.038-.31-.085-.431-.034-.033-.063-.074-.082-.116-.068-.153-.133-.307-.214-.498.03-.072-.048-.207.074-.315.05-.045-.029-.222-.149-.365v.564c-.062-.092-.112-.204-.077-.277.064-.14.01-.249-.018-.373-.035-.155-.051-.313-.073-.47-.002-.017.012-.035.024-.066l.065.047c.002.001.01-.01.014-.013.043-.128-.061-.162-.14-.206.033-.048.057-.086.082-.124l-.197-.223c.05-.139.138-.267.13-.39-.015-.217-.04-.435-.058-.654-.003-.03-.07-.056-.107-.085.018-.043.05-.086.05-.129-.002-.037-.041-.073-.077-.131l-.097.235.135.015c-.008.09.02.222-.03.26-.118.093-.099.203-.096.316.009.403.03.806.029 1.209-.001.369-.025.738-.04 1.107-.043-.112-.034-.222-.045-.331-.012-.118-.044-.234-.061-.351-.004-.026.013-.057.024-.084.07-.17.068-.346-.028-.493-.094-.143.037-.279-.029-.41.163-.166.072-.305-.044-.41l.043-.752-.104-.215-.3.28.007-.006c-.182.155.046.247.066.384-.114.053-.236.107-.156.28l.191-.022-.22.395zM37.714 2.876l-.156.04.145-.267c-.236-.067-.383.127-.571.18l.004.024.073.097-.088.077c.021.07.05.126.054.184.015.236-.11.481.059.71.033.045.006.133.01.201.003.048-.003.104.019.143.141.253.12.497-.034.737l.112.224-.073.186.113.247.165.038-.142.183.2.21-.008-.007-.087.229.266-.021-.012.214-.213.03.028.373c.049-.045.084-.076.102-.094l.195.043c-.06-.721-.173-1.414-.02-2.154l-.117-.072.064-.624.233.25.346-.054-.061.244.165-.022c-.037-.194-.129-.383-.092-.542.057-.258-.005-.425-.226-.554l-.105.075c.019-.1.008-.177-.103-.169l.007.009.055-.227-.323.108.15-.158-.14-.097.016-.011-.01.017zm-.107 4.489l.025.004.018-.018h-.004l-.03.342-.037-.003c0 .328-.002.657.001.986.003.28.01.56.02.84 0 .022.029.043.07.098l.117-.239.068.271h.101c.01.06.018.12.034.229l.086-.229c.112-.057.027-.131.024-.202-.003-.09.019-.181.03-.28l.264.088c.106-.385.027-.736-.03-1.046l-.35-.214-.165.048-.04-.908.082-.053.109-.068c-.277-.024-.372.053-.42.327l-.029.06c.02-.01.037-.022.056-.033zm-.424-5.176c-.017.043-.055.09-.045.126.028.106.074.206.118.32l.357-.135-.26-.123.034-.193.324.095.033-.054-.143-.208-.116.11c-.028-.045-.054-.088-.09-.15l.313-.037.045-.067-.135-.092-.136.112-.387-.06c.03.103.05.157.062.212.01.05.011.101.016.152l.01-.008zm3.49 19.99l-.213.198.155.189.05-.048v-.347l.007.008zm-1.752.184l.067-.002.058.09c.198.015.313-.172.507-.069l.039-.138-.006.006.09-.263.222-.132h-.226c-.003-.16.073-.232.23-.21v-.466l-.197-.052.25-.137-.105-1.02.182-.087.05.128c-.013.006-.025.01-.018.008l.01-.016.12-.322-.247.07c-.06-.316-.12-.629-.175-.943-.006-.04.023-.088.039-.13.032-.087.067-.171.106-.27-.212-.081-.13-.259-.148-.405l.106-.017-.051-.126-.043.01-.008.138c-.172.033-.154-.142-.244-.243-.015.274-.083.525.16.706l-.098.142c.105.133.188.28.033.436l-.12-.098-.174.551c.01.01.06.03.066.059.046.193.1.386.117.582.018.222.088.46-.105.652l-.02-.015.027.008.103.344-.136.052-.396.886.136.13-.081.11-.02-.105-.048-.006-.046.17c-.008 0-.016 0-.022.004-.004.002-.003.01-.004.016l.02-.026zm2.61.363l.004.046.032-.015-.042-.026-.022-.044-.016.034.045.005zm.357.124l-.016.043.009-.052.038-.03-.03.039zM37.17 1.238l.194-.017-.158-.451.16-.131c.169.04.335.07.488-.048.04-.03.12-.033.173-.017.433.125.857.04 1.283-.044.252-.05.485-.04.635.245.962-.217 1.918-.114 2.905.05.021.106.051.22.065.337.08.69.158 1.38.23 2.07.03.3.05.602.066.904.081 1.522.089 3.044.053 4.567-.01.413-.026.827-.054 1.239-.012.177-.065.35-.094.526-.012.069-.02.14-.014.208.014.169.051.336.053.505.012 1.13.019 2.259.026 3.388.01 1.684.035 3.369.023 5.052-.007 1.008-.068 2.015-.113 3.023-.014.3-.055.598-.087.934-.274-.051-.526-.098-.778-.149-.118-.023-.234-.071-.353-.077-.147-.008-.313-.093-.44.077-.024.033-.111.026-.17.028-.857.02-1.714.035-2.57.06-.352.011-.703.045-1.058.068l-.234-.427-.3.064.033-.424-.155-.136.075-.114c-.025-.14-.064-.251-.063-.362.007-.696.036-1.392.032-2.088-.014-2.723-.04-5.445-.055-8.168-.014-2.42-.032-4.841-.023-7.261.003-1.078.066-2.157.106-3.234.002-.066.036-.131.056-.197l-.004-.008.034.189c.02-.096.028-.142.037-.188l-.004.007zM32.617 4.735c.062.286-.093.515-.212.764l-.096-.087c.043-.088.093-.163.116-.246.023-.084.02-.175.03-.28.052-.042.11-.093.17-.143l-.008-.008zM65.744.33l.32.119c.14.189.14.192.146.426-.125-.088-.071-.41-.385-.28l-.076-.27-.005.005zM27.163 1.9c-.049-.376-.049-.376.08-.54l-.08.54"
              transform="translate(-148 -420) translate(88 412) translate(60 8) translate(.056 9)"
            />
            <path
              fill="#137945"
              d="M73.317 22.973l.226.115-.013.05-.205.01v-.182l-.008.007zM66.528 9.04v.255l-.031.01-.1-.257h.138l-.007-.007zM73.349 23.41l.189-.1.023.206-.212-.107M25.118 6.439l-.085.126c-.016-.109-.016-.109.095-.115l-.01-.011zM26.142 3.711c-.001.03-.003.058 0 .018-.02.033-.007.01.007-.012l-.007-.006zM10.771 24.061L10.758 24.072 10.776 24.062zM55.367 17.961l.016.017c-.006.005-.013.014-.018.014-.006 0-.011-.01-.016-.016l.018-.015M73.325 22.965c-.012-.005-.024-.01-.019-.007-.003-.006.004.005.011.015l.008-.008zM33.469 2.567L33.482 2.574 33.473 2.563zM27.058 2.147l.025-.045.034.045.006-.007h-.07l.005.007zM37.107 1.239h.063l.004-.009h-.071l.004.009zM65.75.324L65.7.307l.03-.023.014.046.005-.006zM25.476 15.58l-.068.347c-.1-.151-.09-.27.074-.341l-.006-.007zM25.247 15.23c.119-.057.119-.057.17.089l-.178-.098.008.008z"
              transform="translate(-148 -420) translate(88 412) translate(60 8) translate(.056 9)"
            />
            <path
              fill="#137945"
              d="M25.24 15.22l-.076.177c-.03-.145-.03-.145.083-.168l-.008-.008zM26.99 14.804l.05.015-.044-.023-.007.008zM25.482 15.586l.026-.042-.032.035.006.007zM12.58 15.883l-.056.123.009.008.054-.126-.007-.005zM12.296 17.053l.042-.14-.007-.009-.044.14.009.009zM12.524 16.006l-.024.048.032-.04-.008-.008zM12.208 17.675l-.018.016c-.005-.006-.014-.013-.013-.019 0-.005.01-.01.016-.016l.015.02"
              transform="translate(-148 -420) translate(88 412) translate(60 8) translate(.056 9)"
            />
            <path
              fill="#137945"
              d="M12.338 16.913l.064-.056-.009-.008-.062.055.007.009zM12.402 16.857l.028-.04-.036.032.008.008zM30.51 5.113l.013-.076.027.01-.045.06.005.006zM30.201 5.356l.052.007-.02.033-.027-.046-.005.006z"
              transform="translate(-148 -420) translate(88 412) translate(60 8) translate(.056 9)"
            />
            <path
              fill="#137945"
              d="M30.444 5.112h.066l-.005-.005-.042.048-.013-.048-.006.005zM26.581 14.141l.048-.132-.009-.01-.047.135.008.007zM26.629 14.009l.034-.036-.043.025.009.01zM26.517 13.167l-.069-.007.006.006-.007-.07.07.071"
              transform="translate(-148 -420) translate(88 412) translate(60 8) translate(.056 9)"
            />
            <path
              fill="#137945"
              d="M26.457 13.108l-.073-.071.073.07M26.091 13.471c.087-.08.087-.08.19-.035l-.196.028.006.007zM26.448 13.16l-.017.046-.024-.03.047-.01-.006-.006zM26.513 11.224l-.022.02.031-.01-.009-.01zM72.393 8.788c.04.143.03.282-.02.442-.084-.16-.084-.16.029-.435l-.009-.007zM78.585 16.914l.043.116-.232.013c.016-.112.109-.112.19-.129M72.634 7.889v.134l-.023.001c-.005-.046-.01-.092-.013-.138l.036.003M74.477 18.054l.116-.049.018.036-.109.066-.025-.053"
              transform="translate(-148 -420) translate(88 412) translate(60 8) translate(.056 9)"
            />
            <path
              fill="#137945"
              d="M78.406 17.033v.07l-.14-.018.01.008.13-.06M72.161 15.591v-.073.073z"
              transform="translate(-148 -420) translate(88 412) translate(60 8) translate(.056 9)"
            />
            <path
              fill="#137945"
              d="M78.267 17.085l.002.047.008-.039-.01-.008zM72.22 16.917l-.007-.007.008.007zM81.429 8.79l.2.055-.078-.193-.122.138m-.125-.106l-.044-.283c.134-.045.088.091.131.131.12-.079.091-.176.034-.276h.21c.15.27.111.621.398.816-.138.128-.22.024-.313-.048-.047-.037-.085-.167-.173-.041l.008-.008c-.027.012-.053.025-.08.039l-.171-.33M81.307 6.749c.073.063.145.13.222.19.05.041.108.073.188.126.004.219.108.43.294.611-.208-.035-.312-.205-.397-.348-.055-.091-.133-.104-.19-.164l.007.01c.046-.092.02-.169-.036-.249-.037-.054-.055-.122-.081-.184l-.007.008zM84.812 14.46l-.03-.014-.05.077.04.022.04-.086zm-.169.224v-.27c.101-.12.215-.103.365-.047l-.13-.185.197-.037-.009-.008-.023.52-.41.017.01.01zM82.584 5.771l.159.111.18-.02.02.048-.109.08.186.234-.227.042-.224-.482.015-.013zM82.765 10.013l.25-.182-.007-.002c.087.067.049.13.008.207-.02.039.007.102.013.158-.22.097-.22.097-.362.037-.047-.11.216-.077.103-.218h-.005zM81.829 7.94c-.208-.078-.31-.224-.314-.464.229.093.228.307.314.464M85.188 12.399h-.22c-.063-.202-.063-.202.168-.32l.052.32M80.589 6.379l-.242-.11v-.367l.23.302.006-.006c-.105.062-.031.126-.002.189l.008-.008zM80.769 6.316l.255.234-.141.124c-.103-.117-.137-.233-.106-.367l-.008.009zM85.777 13.298l.136.164v.13l-.23-.05c-.054-.102-.022-.186.094-.244"
              transform="translate(-148 -420) translate(88 412) translate(60 8) translate(.056 9)"
            />
            <path
              fill="#137945"
              d="M81.424 7.164l-.01.147-.208-.22c.134-.145.15.057.225.083l-.007-.01zM84.305 9.25l.08.352-.053.014-.093-.346.066-.02M84.395 8.276l-.201-.131c.182-.1.202-.001.201.131M85.075 14.145c-.031-.131-.03-.25.124-.33.09.179-.112.212-.133.322l.009.008zM82.149 12.445l-.207-.186.28.016-.073.17M82.685 9.298c.172-.053.226-.004.267.144l-.267-.144M82.442 10.62c.168.049.15.135.09.3l-.09-.3M84.89 13.862l-.101.236-.038-.008.019-.265.12.037M84.704 10.856l-.123.129c-.066-.118-.01-.178.093-.245l.02.127.01-.011zM81.547 8.983c.092.074.17.153.107.34l-.1-.348-.007.008zM82.844 11.852l-.022-.184.047-.012c.02.06.043.12.064.18l-.089.016M82.527 12.383l.15-.05.015.053-.153.04-.012-.043M83.795 7.768c-.095-.01-.122-.073-.15-.181.122.04.158.096.143.188l.007-.007zM84.463 9.466c.073.042.143.086.11.19l.008-.007c-.085-.036-.15-.083-.11-.19l-.008.007zM83.964 7.22l-.008.126-.138-.163.154.046-.008-.008zM82.825 11.024v-.138l.05-.003.02.126-.07.015M85 8.923l.128-.053-.008-.007v.175l-.128-.122.009.007zM82.28 12.448c.052-.108.09-.156.171-.03l-.172.03M84.703 10.316l-.09.096-.035-.027.076-.113.05.044zM82.733 11.127l.093-.012c-.01.011-.021.031-.033.032-.017.002-.035-.01-.06-.02M84.78 8.471c0-.022.002-.044.004-.066l.015.001-.004.066-.015-.001M83.92 8.068l-.016-.016.006.024.01-.008zM84.573 7.95l.07.002-.004.119.004-.007-.07-.114M84.74 8.903l-.076.02-.008-.04.078-.01.006.03zM84.94 8.922l-.03-.007c-.018-.015.002 0 .021.017l.01-.01zM78.647 4.69c.003-.05-.034-.124.07-.113l-.01-.007-.066.114.006.005z"
              transform="translate(-148 -420) translate(88 412) translate(60 8) translate(.056 9)"
            />
            <path
              fill="#137945"
              d="M84.635 7.959l-.002-.068.122.008-.12.06M84.639 8.07l.029.07-.025-.076-.004.007zM84.962 8.252l-.01-.073c.01 0 .018-.001.027-.003l.006.073-.023.003M83.787 7.775l.01.012c.006.04.002.01-.002-.02l-.008.008zM84.036 7.225l-.072-.004.008.008.003-.121-.008.007c.02.04.041.078.063.117l.006-.007zM84.841 8.658L84.858 8.658 84.858 8.586 84.841 8.586zM80.777 6.307l-.133-.048-.006.005.131.052.008-.009zM83.975 7.108c-.01-.01-.02-.02-.022-.02l.014.027.008-.007zM83.91 8.076l.013.009-.004-.017-.009.008zM82.77 10.013l-.012-.015.006.015h.006zM83.015 9.83L83 9.817l.008.013.007.002zM84.471 9.46l-.024-.002.017.008.007-.007zM84.931 8.932l.07-.009-.009-.007v.048l-.052-.042-.009.01zM78.716 4.577l.002-.028-.01.021.008.007zM78.22 4.385c.007-.01.015-.02.011-.016l-.019.009.007.007zM81.314 6.741l-.024-.014.017.022.007-.008zM80.644 6.258l-.061-.06-.007.006.062.06.006-.006zM79.92 5.962l-.07-.07.07.07zM81.974 5.35l-.017.02.024-.014-.007-.007zM85.12 14.802l-.008.007.008-.007zM84.938 14.916l.034-.035-.041.027.007.008zM86.154 12.43l.007-.007-.007.007zM82.64 11.527l-.025.042-.015-.032.047-.003-.008-.007z"
              transform="translate(-148 -420) translate(88 412) translate(60 8) translate(.056 9)"
            />
            <path
              fill="#137945"
              d="M82.641 11.467l.04.02-.042.04.008.007v-.074l-.006.007z"
              transform="translate(-148 -420) translate(88 412) translate(60 8) translate(.056 9)"
            />
            <path
              fill="#137945"
              d="M82.647 11.46l-.044-.008.038.015.006-.007zM82.41 13.943L82.385 13.938 82.402 13.95zM69.963 16.407c-.261-.108-.222-.386-.337-.587l.174-.16.016.377.173-.086-.026.456M69.383 18.246c.1-.1.023-.179-.026-.265l-.076.08-.085-.152.253-.097c.094.288.034.58.005.874l-.077-.434.006-.006zM69.457 12.639c.044.036.085.055.085.072-.008.199-.023.397-.085.593v-.665zM69.185 16.039v.388c-.144-.15-.113-.252 0-.388M69.258 15.161c.036.024.1.044.103.071.013.096.005.194-.037.297l-.065-.368zM68.773 18.126c.025.078.05.156.082.248l-.205.017.132-.272-.01.007zM69.202 17.155c-.147-.115-.045-.258-.06-.403.167.132.083.272.054.408l.006-.005zM68.665 17.169v-.397h.04v.402l-.04-.005M69.684 17.654l.01-.205.186.167-.196.038M69.477 16.06l-.155.103-.033-.062.169-.078.02.037M69.126 15.796l.055.13-.059.02-.038-.135.042-.015M69.9 12.134l.094-.041.028.07c-.031.01-.063.022-.095.034l-.028-.063M69.492 19.162v.164c-.162-.04-.05-.108 0-.164M69.153 17.564l.04-.135.041.002c.002.028.012.06.003.084-.008.024-.034.042-.052.062l-.032-.013zM69.015 16.86l-.012.137-.02-.002v-.136l.032.002M69.926 16.822l.025-.129.046.008-.02.135-.05-.014M69.089 18.25l-.015-.18c.112.063.135.107.015.18M69.682 18.853l-.053-.113.045-.013v.134l.008-.008zM68.716 17.523l.052.1-.038.012-.005-.12-.009.008zM68.591 16.251l.051.074-.038.014-.005-.097-.008.009z"
              transform="translate(-148 -420) translate(88 412) translate(60 8) translate(.056 9)"
            />
            <path
              fill="#137945"
              d="M68.524 16.244l.036-.13.031.137.008-.01-.063.015-.012-.012zM69.195 17.16l.048.092-.041.012v-.109l-.007.005zM69.739 18.92l-.057-.067-.008.008.057.068.008-.008zM69.377 18.252l-.042-.032.048.026-.006.006zM68.725 17.515l-.03-.012.022.02.008-.008zM75.24 20.168c-.166.158-.304.163-.68.023.16-.075.415-.084.68-.023M72.153 19.716l.206-.086c.018.056.03.096.06.185l-.259-.109-.007.01zM74.31 20.29l-.117-.056.013-.039.136.024-.031.07M67.748 15.519c-.162-.021-.052-.083-.007-.133v.14l.007-.007z"
              transform="translate(-148 -420) translate(88 412) translate(60 8) translate(.056 9)"
            />
            <path
              fill="#137945"
              d="M67.74 15.526l.021.016-.013-.023-.007.007zM82.843 14.15L82.862 14.15 82.862 14.043 82.843 14.043zM82.393 14.985v-.072l.044.02-.044.052M71.018 19.282l-.07-.07.07.07M86.15 11.708l.025.017-.017-.025-.008.008zM80.99 9.545h.033l-.026-.008-.008.008zM69.913 10.727v.025c-.015.031-.003.007.009-.017l-.009-.008zM81.665 9.77h.074l-.037.04-.037-.04M81.303 10.615l-.017.03c0-.005-.001-.013.001-.016.006-.004.015-.006.022-.009l-.006-.005zM52.697 16.497l-.127-.148.177-.26c.085.17.016.268-.05.408M51.12 17.812c-.022.12.24.13.11.312-.129-.08-.122-.195-.11-.312M52.385 16.642l-.053-.257c.128.12.128.12.053.257M50.836 18.018l-.04-.158.035-.011.058.155-.053.014M52.24 17.393l-.137.024-.01-.063.137-.02.01.059M52.192 17.998l-.132.006.109-.168.013.172.01-.01zM51.962 17.315L51.981 17.315 51.981 17.243 51.962 17.243zM50.005 18.162l.036-.065.017.069-.053-.004M51.391 16.664l-.004.026.012-.018-.008-.008zM53.16 17.95l-.075-.001h.076M52.519 17.653c.006.007.016.014.015.02 0 .007-.011.012-.018.018-.006-.007-.016-.014-.015-.02 0-.007.011-.013.018-.018M51.294 21.432h-.14l-.008-.045.134-.024.014.07M51.261 12.022l.026.001-.018-.008-.008.007zM42.245 21.348c.09.198.09.198.006.449-.112-.109-.104-.104-.022-.253.031-.055.018-.135.025-.204l-.009.008zM42.293 20.882c-.222-.061-.024-.262-.133-.36.127.117.136.146.133.36M42.262 21.088c.198.061.28.137.294.328l-.294-.328M40.741 19.208v.312l-.138-.088c.04-.063.072-.117.138-.224M41.064 17.552l.055-.172.04.01-.028.178-.067-.016M41.203 18.283v.21c-.044-.096-.066-.144-.09-.2l.09-.01M40.525 18.919l.205.076c-.097.071-.17.1-.205-.076M40.826 19.019c.03.006.059.004.078.018.038.026.072.061.107.092-.009.005-.021.016-.026.014-.052-.026-.104-.053-.154-.081-.005-.003-.002-.019-.005-.043M41.023 21.751l.011.196h-.031v-.195h.02M40.796 20.68l.239.013c-.093.069-.165.04-.23-.022l-.009.008zM40.972 18.178l-.056.094-.034-.037.098-.048-.008-.009z"
              transform="translate(-148 -420) translate(88 412) translate(60 8) translate(.056 9)"
            />
            <path
              fill="#137945"
              d="M42.254 21.34l-.11-.097c.14-.045.096.05.101.105l.01-.008zM40.805 20.67l-.024-.02.015.03.009-.01zM40.98 18.187l.026-.041.011.03-.045.002.008.009zM41.044 17.043l-.057-.003-.005.006.066.004-.004-.007zM41.048 17.05L41.052 17.031 41.044 17.043z"
              transform="translate(-148 -420) translate(88 412) translate(60 8) translate(.056 9)"
            />
            <path
              fill="#137945"
              d="M40.987 17.04l-.067-.067-.007.005.069.068.005-.006zM37.481 4.196v-.235c.019.003.044.005.044.009.01.074.019.148.027.223l-.07.003M37.437 2.753c.048.08.068.117.09.152l-.032.031c-.022-.02-.05-.036-.063-.06-.01-.018 0-.045.005-.123M38.153 3.887l-.065-.114.038-.025.075.108-.048.03M37.96 3.235l-.022.015.028-.007-.007-.008zM37.605 6.09l-.006-.048.034.006-.037.035.009.007zM39.471 21.784l.036.173-.046.012-.054-.175.064-.01M39.687 20.69l.013.064-.025.005-.007-.065.02-.004M39.65 19.359c-.004.026-.008.052-.014.078l-.02-.001c-.005-.026-.007-.052-.01-.078h.045M39.592 22.244c-.008-.003-.018-.003-.024-.008-.003-.003-.001-.012-.002-.018l.02.032.006-.006zM38.981 22.37l.068-.068-.068.067zM38.213 8.603l-.015-.27c.144.082.145.172.015.27M38.112 8.308l-.089.257c-.03-.02-.058-.028-.058-.038-.008-.127-.007-.127.147-.219M37.947 9.388l-.033-.136.059-.017.04.145-.066.008M38.013 8.231c-.02.006-.04.013-.062.014-.003 0-.016-.036-.01-.043.015-.016.038-.026.058-.038l.014.067M38.083 9.655h-.135c.045-.07.09-.079.135 0M37.65 7.351c.006 0 .011-.002.017-.003l-.021.002.004.001zM37.173 2.197l.01.013v-.02l-.01.007zM37.749 10.175L37.872 10.175 37.872 10.151 37.749 10.151z"
              transform="translate(-148 -420) translate(88 412) translate(60 8) translate(.056 9)"
            />
          </g>
          <path
            fill="#FFF"
            d="M5.01 42.39c1.76 0 2.814.624 3.784 1.54l-.748.803c-.818-.776-1.733-1.33-3.05-1.33-2.15 0-3.758 1.732-3.758 3.992s1.622 4.021 3.757 4.021c1.331 0 2.205-.513 3.134-1.4l.72.707c-1.011 1.026-2.12 1.705-3.881 1.705C2.167 52.428.1 50.224.1 47.423c0-2.773 2.052-5.033 4.908-5.033zm76.129 0c2.953 0 4.936 2.316 4.936 5.005 0 2.69-2.01 5.033-4.964 5.033-2.953 0-4.936-2.315-4.936-5.005s2.01-5.033 4.964-5.033zm-43.967.028c1.414 0 2.426.402 3.41 1.192l-.637.846c-.901-.735-1.803-1.054-2.8-1.054-1.262 0-2.067.694-2.067 1.58 0 .93.5 1.443 2.635 1.9 2.163.472 3.16 1.262 3.16 2.76 0 1.677-1.386 2.758-3.313 2.758-1.539 0-2.8-.512-3.965-1.552l.68-.805c1.011.916 1.982 1.373 3.327 1.373 1.303 0 2.163-.68 2.163-1.664 0-.915-.486-1.428-2.524-1.858-2.232-.485-3.258-1.206-3.258-2.814 0-1.553 1.345-2.662 3.189-2.662zm-16.024.07l4.423 9.774h-1.179l-1.137-2.565h-5.282l-1.15 2.565h-1.124l4.423-9.775h1.026zm39.11.069l6.115 7.778v-7.778h1.068v9.705h-.874L60.3 44.303v7.959h-1.067v-9.705h1.026zm-9.833 0v9.705H49.33v-9.705h1.095zm30.686.845c-2.218 0-3.799 1.775-3.799 3.993 0 2.219 1.609 4.021 3.827 4.021s3.799-1.775 3.799-3.993-1.608-4.02-3.827-4.02zm-60.49.36l-2.218 4.95h4.423l-2.205-4.95z"
            transform="translate(-148 -420) translate(88 412) translate(60 8)"
          />
          <path
            fill="#FFF"
            d="M114.084 21.617c.054.175.118.35.184.525l.2.525c.161.437.301.876.32 1.319.175 4.311.366 8.626.332 12.939-.032 4.032-.267 8.068-.555 12.092-.143 2.004-.663 3.978-.905 5.978-.192 1.584-.217 3.188-.324 4.782-.1 1.494-.24 2.73-.346 4.223h-5.756c-.01-.04-.042-.096-.026-.12 1.992-2.894 1.333-6.067 1.904-9.242.859-4.78 1.417-9.628 2.555-14.337.617-2.556.9-4.974.8-7.593-.091-2.413.61-4.853.943-7.284.123-.893.195-1.793.28-2.69.034-.353.039-.707.057-1.06l.337-.057zM102.814 21c.128.066.257.099.259.137.134 3.317.442 6.642.311 9.95-.074 1.892-.242 3.709-.008 5.641.308 2.549-.043 5.182-.17 7.776-.163 3.323-.264 6.657-.618 9.961-.309 2.88-.94 5.724-1.402 8.588-.062.387.016.545.042.947h-4.254c.087-.49.312-.735.27-1.213-.346-3.915 1.515-7.47 1.805-11.27.294-3.848.311-7.722.73-11.553.575-5.26.352-10.622 1.901-15.765.286-.95.545-1.91.837-2.86.042-.134.2-.234.296-.339zm19.113 15.443c.138.487.321.966.405 1.462.595 3.52 1.337 7.027 1.7 10.572.303 2.969.119 5.984.219 8.977.078 2.365-.268 4.383-1.251 6.546h-3.503c.232-5.803.45-11.353.756-17.152.064-1.217.648-2.398.812-3.62.241-1.807.327-3.635.465-5.455.032-.423.005-.85.005-1.275l.392-.055z"
            opacity=".16"
            transform="translate(-148 -420) translate(88 412) translate(60 8)"
          />
        </g>
      </g>
    </g>
  </g>
</svg>
